<?xml version="1.0" encoding="utf-8"?>
<!-- Generator: Adobe Illustrator 19.0.0, SVG Export Plug-In . SVG Version: 6.00 Build 0)  -->
<!DOCTYPE svg PUBLIC "-//W3C//DTD SVG 1.1//EN" "http://www.w3.org/Graphics/SVG/1.1/DTD/svg11.dtd">
<svg version="1.1" id="Layer_1" xmlns="http://www.w3.org/2000/svg" xmlns:xlink="http://www.w3.org/1999/xlink" x="0px" y="0px"
	 viewBox="-269 216 200 50" style="enable-background:new -269 216 200 50;" xml:space="preserve">
<style type="text/css">
	.st0{fill:#FFFFFF;}
</style>
<g>
	<g id="XMLID_5_">
		<g id="XMLID_3_">
			<polygon id="XMLID_60_" class="st0" points="-266.4,227.2 -242.7,216.4 -235.3,219.4 -250.4,226.9 -242.1,231 -227.5,223.5 
				-218.9,227.2 -242.3,239.9 			"/>
		</g>
		<g id="XMLID_2_">
			<polygon id="XMLID_58_" class="st0" points="-217.7,228.9 -217.7,237.3 -233.2,245.3 -233.2,253.4 -217.7,245.7 -217.7,253.6 
				-241.3,265.6 -241.3,241.7 			"/>
		</g>
		<g id="XMLID_1_">
			<polygon id="XMLID_56_" class="st0" points="-267.7,228.9 -267.7,253.6 -261.2,256.6 -261.3,241.5 -255.6,249.8 -250.4,245.5 
				-250.4,262 -243.5,265.6 -243.4,241.7 -250.4,238 -255.3,242 -261.4,232.2 			"/>
		</g>
	</g>
	<g id="XMLID_30_">
		<g id="XMLID_31_">
			<path id="XMLID_112_" class="st0" d="M-183.6,218.6h5.2l5.2,7.6l5.1-7.6h5.3v19.9h-6.3v-7.2l-4,6l-4-6v7.2h-6.5V218.6z
				 M-179.9,236.1v-13.6l6.7,9.7l6.5-9.7v13.6h0.9V221h-0.8l-6.7,9.7l-6.7-9.9h-0.8v15.1h0.8L-179.9,236.1L-179.9,236.1z"/>
		</g>
		<g id="XMLID_34_">
			<path id="XMLID_106_" class="st0" d="M-151.8,218.6h4.8l7.5,19.9h-6.3l-0.5-1.7h-6l-0.5,1.7h-6.3L-151.8,218.6z M-155,236.1
				l0.5-1.5h9.9l0.5,1.5h0.9l-5.7-15.1h-1.2l-5.7,15.1H-155z M-149.4,221.8l4.7,12.1h-9.2L-149.4,221.8z M-148,232.3l-1.3-3.5
				l-1.3,3.5H-148z"/>
		</g>
		<g id="XMLID_39_">
			<path id="XMLID_100_" class="st0" d="M-136.2,218.6h6.8c1.2,0,2.4,0.1,3.6,0.4c1.1,0.3,2.1,0.9,2.8,1.5c0.8,0.5,1.3,1.5,1.7,2.4
				c0.4,0.9,0.5,2.1,0.5,3.3c0,1.1-0.1,1.7-0.4,2.5c-0.3,0.8-0.5,1.2-0.9,1.7c-0.4,0.4-0.9,0.9-1.3,1.3l3.7,6.5h-7.5l-2.9-5.1v5.1
				h-6.3v-19.7H-136.2z M-130,231.7c0.8,0,1.5-0.1,2.3-0.3l2.8,4.8h0.9l-2.9-4.9c1.1-0.4,2-0.9,2.5-1.7c0.5-0.8,0.9-1.7,0.9-2.9
				c0-0.9-0.1-1.6-0.4-2.3c-0.3-0.5-0.8-1.2-1.3-1.6c-0.5-0.4-1.3-0.8-2.1-1.1c-0.8-0.3-1.6-0.3-2.5-0.3h-3.3v14.8h0.8v-4.5h2.5l0,0
				H-130z M-132.4,230.9v-9.1h2.4c1.7,0,3.3,0.4,4.1,1.2c1.1,0.8,1.5,2,1.5,3.5s-0.4,2.5-1.5,3.5c-1.1,0.8-2.4,1.2-4.1,1.2h-2.4
				V230.9z M-129.9,228.3h0.3c0.8,0,1.3-0.1,2-0.4c0.5-0.3,0.8-0.9,0.8-1.6c0-0.8-0.3-1.3-0.8-1.6c-0.5-0.3-1.2-0.4-2-0.4h-0.3
				V228.3z"/>
		</g>
		<g id="XMLID_44_">
			<path id="XMLID_96_" class="st0" d="M-113.4,223.8h-3.6v-5.2h13.9v5.2h-3.6v14.7h-6.5v-14.7H-113.4z M-109.6,236.1v-14.3h4.1V221
				h-9.2v0.8h4.1v14.3H-109.6z"/>
		</g>
		<g id="XMLID_47_">
			<path id="XMLID_92_" class="st0" d="M-99,218.6h6.7v19.9H-99V218.6z M-95.2,236.1V221H-96v15.1H-95.2z"/>
		</g>
		<g id="XMLID_50_">
			<path id="XMLID_88_" class="st0" d="M-87.2,218.6h5.2l5.5,7.6v-7.6h6.3v19.9h-5.2l-5.3-7.6v7.6h-6.3v-19.9H-87.2z M-83.8,236.1
				v-13.7l9.9,13.7h0.8V221h-0.8v13.7l-9.9-13.7h-0.8v15.1H-83.8z"/>
		</g>
	</g>
	<g id="XMLID_6_">
		<g id="XMLID_8_">
			<path id="XMLID_83_" class="st0" d="M-184,255.1c0-1.5,0.3-2.7,0.8-3.9c0.4-1.2,1.2-2.1,2.1-2.9c0.9-0.9,1.7-1.5,2.9-2
				c1.2-0.4,2.4-0.5,3.6-0.5c1.1,0,2,0.1,2.7,0.3c0.8,0.1,1.5,0.4,2.1,0.5c0.5,0.3,1.2,0.5,1.7,0.9l-2.8,4.9
				c-0.3-0.1-0.5-0.4-0.9-0.5c-0.3-0.1-0.5-0.3-1.1-0.4s-0.9-0.1-1.5-0.1c-0.5,0-1.1,0.1-1.5,0.3c-0.4,0.1-0.9,0.4-1.2,0.8
				c-0.3,0.4-0.5,0.8-0.8,1.2c-0.1,0.4-0.3,0.9-0.3,1.5c0,0.5,0.1,1.1,0.3,1.5c0.1,0.4,0.4,0.9,0.9,1.2c0.4,0.3,0.8,0.5,1.2,0.8
				c0.4,0.1,1.1,0.3,1.6,0.3s1.1,0,1.5-0.1c0.4-0.1,0.9-0.3,1.2-0.4s0.5-0.4,0.9-0.8l2.8,4.9c-0.4,0.4-1.1,0.8-1.7,1.1
				c-0.8,0.4-1.3,0.5-2.3,0.9c-0.8,0.1-1.7,0.3-2.8,0.3c-1.3,0-2.7-0.3-3.9-0.8c-1.2-0.4-2.3-1.1-3.1-2c-0.9-0.9-1.5-1.7-2-2.9
				C-183.8,257.8-184,256.5-184,255.1z M-180.6,255.1c0-0.9,0.1-1.6,0.4-2.4c0.3-0.8,0.8-1.3,1.2-2c0.5-0.5,1.2-1.1,2-1.3
				s1.6-0.4,2.5-0.4c0.4,0,0.9,0,1.2,0.1c0.3,0,0.8,0.1,0.9,0.3c0.3,0.1,0.5,0.1,0.8,0.3l0.4-0.5c-0.3-0.1-0.5-0.3-0.9-0.3
				c-0.3-0.1-0.5-0.1-1.1-0.3c-0.4,0-0.9-0.1-1.3-0.1c-0.9,0-1.7,0.1-2.7,0.4c-0.9,0.3-1.5,0.8-2.3,1.3c-0.5,0.5-1.2,1.3-1.5,2.3
				c-0.4,0.9-0.5,1.7-0.5,2.8c0,1.1,0.1,2,0.5,2.8c0.3,0.9,0.9,1.5,1.5,2.1c0.5,0.7,1.3,1.1,2.3,1.3c0.9,0.3,1.7,0.4,2.7,0.4
				c0.5,0,1.1,0,1.5-0.1c0.4-0.1,0.8-0.1,1.1-0.3s0.5-0.3,0.9-0.4l-0.4-0.5c-0.3,0.1-0.4,0.3-0.8,0.4c-0.3,0.1-0.5,0.1-0.9,0.3
				c-0.4,0.1-0.8,0.1-1.3,0.1c-1.1,0-2-0.1-2.7-0.4c-0.7-0.3-1.5-0.8-2-1.3s-0.9-1.2-1.2-2C-180.4,256.9-180.6,256.1-180.6,255.1z"
				/>
		</g>
		<g id="XMLID_11_">
			<path id="XMLID_77_" class="st0" d="M-158.7,246.2h4.3l6.8,17.9h-5.7l-0.5-1.6h-5.3l-0.5,1.6h-5.7L-158.7,246.2z M-161.4,262.1
				l0.4-1.3h8.8l0.4,1.3h0.9l-5.2-13.6h-1.1l-5.2,13.6H-161.4z M-156.4,249l4.1,11.1h-8.4L-156.4,249z M-155.2,258.6l-1.2-3.1
				l-1.2,3.1H-155.2z"/>
		</g>
		<g id="XMLID_16_">
			<path id="XMLID_71_" class="st0" d="M-143.9,246.2h6.1c1.2,0,2.3,0.1,3.1,0.4c1.1,0.3,1.7,0.8,2.5,1.3c0.8,0.5,1.3,1.3,1.6,2.3
				c0.4,0.9,0.5,2,0.5,2.9c0,0.9-0.1,1.6-0.4,2.3c-0.3,0.5-0.5,1.2-0.9,1.5c-0.3,0.4-0.8,0.9-1.2,1.2l3.3,6h-6.7l-2.7-4.5v4.5h-5.7
				v-17.9H-143.9z M-138.4,257.8c0.8,0,1.3,0,2.1-0.1l2.5,4.3h0.9l-2.7-4.5c0.9-0.3,1.7-0.9,2.3-1.6c0.5-0.8,0.9-1.6,0.9-2.7
				c0-0.8-0.1-1.5-0.4-2.1c-0.3-0.5-0.8-1.1-1.2-1.5c-0.5-0.4-1.2-0.8-2-0.9c-0.8-0.1-1.5-0.3-2.4-0.3h-2.8v13.6h0.8v-4h2.1v-0.1
				H-138.4z M-140.4,257.3V249h2.3c1.6,0,2.8,0.3,3.9,1.1c0.9,0.8,1.3,1.7,1.3,3.1c0,1.3-0.4,2.4-1.3,2.9c-0.9,0.8-2.3,1.1-3.9,1.1
				h-2.3V257.3z M-138.3,255h0.3c0.8,0,1.2-0.1,1.7-0.4c0.4-0.3,0.8-0.8,0.8-1.5c0-0.7-0.3-1.2-0.8-1.5c-0.4-0.3-1.1-0.4-1.7-0.4
				h-0.3V255z"/>
		</g>
		<g id="XMLID_21_">
			<path id="XMLID_67_" class="st0" d="M-125.1,246.2h4.8l4.7,6.8l4.7-6.8h4.8v17.9h-5.7v-6.4l-3.6,5.3l-3.7-5.3v6.4h-5.7v-17.9
				L-125.1,246.2L-125.1,246.2z M-121.6,262.1v-12.4l6,8.8l6-8.8v12.4h0.8v-13.6h-0.8l-6,8.8l-6-8.8h-0.8v13.6
				C-122.4,262.1-121.6,262.1-121.6,262.1z"/>
		</g>
		<g id="XMLID_24_">
			<path id="XMLID_63_" class="st0" d="M-101.2,246.2h10.5v4.7h-4.8v2h4.8v4.5h-4.8v2.3h5.1v4.7h-10.8v-17.9h0V246.2z M-92.4,262.1
				v-0.5h-5.3v-5.9h5.1v-0.5h-5.1v-6h5.3v-0.5h-6.1v13.6h6.1V262.1z"/>
		</g>
		<g id="XMLID_27_">
			<path id="XMLID_57_" class="st0" d="M-85.6,246.2h4.7l4.9,6.8v-6.8h5.7v17.9h-4.8l-4.9-6.8v6.8h-5.7v-17.9H-85.6z M-82.4,262.1
				v-12.4l8.8,12.4h0.8v-13.6h-0.8v12.4l-8.8-12.4h-0.8v13.6C-83.2,262.1-82.4,262.1-82.4,262.1z"/>
		</g>
	</g>
	<g id="XMLID_4_">
		<rect id="XMLID_53_" x="-202" y="222.2" class="st0" width="2.9" height="38.8"/>
	</g>
</g>
</svg>
